<svg xmlns="http://www.w3.org/2000/svg" xmlns:xlink="http://www.w3.org/1999/xlink" version="1.1" x="0px" y="0px" viewBox="0 0 100 125" enable-background="new 0 0 100 100" xml:space="preserve"><path fill="#fff" d="M94.814,30.201c-0.449-1.229-1.813-1.941-3.125-2.637c-1.176-0.624-17.58-6.948-17.58-6.948s-3.75-1.591-5.521-1.459  c-1.836,0.138-3.576,0.339-7.576,2.583C51.666,26.973,33.731,37.165,18,46.938C12.378,50.434,6.778,60.111,6.778,60.111  s-1.836,2.572-1.777,4.6c0.215,1.641,0.841,2.117,2.162,2.836c5.729,3.111,19.321,10.504,20.529,11.227  c3.364,2.017,6.395,2.308,8.326,1.941c2.717-0.519,9.28-5.295,9.714-5.587c16.721-11.269,31.112-21.673,38.047-26.756  c2.826-2.07,3.275-2.513,4.176-3.548c0.742-0.852,1.23-1.509,2.408-3.655c1.252-2.281,2.711-4.945,3.416-6.267  C94.814,33.264,95.289,31.495,94.814,30.201z M89.307,34.557L48.799,61c0,0-0.455,0.295-0.672,0.517  c-0.227,0.231-0.521,0.655-0.521,0.655l-9.966,14.875c-0.2,0.297-0.527,0.459-0.862,0.459c-0.198,0-0.397-0.058-0.574-0.176  c-0.476-0.316-0.603-0.961-0.284-1.438l9.495-14.125c0,0,0.275-0.369,0.143-0.582c-0.054-0.117-0.291-0.206-0.291-0.206  L20.586,50.648c-0.527-0.22-0.776-0.828-0.554-1.355c0.221-0.526,0.828-0.779,1.354-0.554l23.852,9.981c0,0,1.125,0.473,1.754,0.454  c0.891-0.026,2.119-0.936,2.119-0.936l39.064-25.417c0.479-0.313,1.117-0.179,1.434,0.301C89.92,33.602,89.783,34.243,89.307,34.557  z"/></svg>
