<svg xmlns="http://www.w3.org/2000/svg" xmlns:xlink="http://www.w3.org/1999/xlink" version="1.1" x="0px" y="0px" viewBox="0 0 90 112.5" style="enable-background:new 0 0 90 90;" xml:space="preserve"><g><path fill="#333" d="M45,78.9c-4.4,0-7.9-3.6-7.9-7.9c0-4.1,7.2-21.4,7.5-22.1l0.5-1.1l0.5,1.1c0.3,0.7,7.5,18,7.5,22.1   C52.9,75.4,49.4,78.9,45,78.9z M45,50.4c-1.6,4-6.9,17.3-6.9,20.6c0,3.8,3.1,6.9,6.9,6.9c3.8,0,6.9-3.1,6.9-6.9   C51.9,67.6,46.6,54.3,45,50.4z"/><g><path fill="#333" d="M19,52.9c-4.4,0-7.9-3.6-7.9-7.9s3.6-7.9,7.9-7.9c4.1,0,21.4,7.2,22.1,7.5l1.1,0.5l-1.1,0.5    C40.4,45.8,23.2,52.9,19,52.9z M19,38.1c-3.8,0-6.9,3.1-6.9,6.9c0,3.8,3.1,6.9,6.9,6.9c3.4,0,16.7-5.3,20.6-6.9    C35.7,43.4,22.4,38.1,19,38.1z"/><path fill="#333" d="M71,37.6c4.1,0,7.4,3.3,7.4,7.4s-3.3,7.4-7.4,7.4S49,45,49,45S66.9,37.6,71,37.6z"/></g><path fill="#333" d="M43.1,43.1l-1.1-0.5c-0.7-0.3-18-7.5-20.9-10.4l0,0l0,0c-1.5-1.5-2.3-3.5-2.3-5.6s0.8-4.1,2.3-5.6   s3.5-2.3,5.6-2.3s4.1,0.8,5.6,2.3c2.9,2.9,10.1,20.2,10.4,20.9L43.1,43.1z M26.6,19.7c-1.8,0-3.6,0.7-4.9,2c-1.3,1.3-2,3-2,4.9   s0.7,3.6,2,4.9l0,0c2.4,2.4,15.5,8,19.5,9.7c-1.7-4-7.3-17.1-9.7-19.5C30.2,20.4,28.5,19.7,26.6,19.7z"/><g><path fill="#333" d="M26.6,71.3c-2.1,0-4.1-0.8-5.6-2.3c-3.1-3.1-3.1-8.1,0-11.2c2.9-2.9,20.2-10.1,20.9-10.4l1.1-0.5l-0.5,1.1    c-0.3,0.7-7.5,18-10.4,20.9l0,0l0,0C30.7,70.5,28.7,71.3,26.6,71.3z M41.2,48.8c-4,1.7-17.1,7.3-19.5,9.7c-2.7,2.7-2.7,7.1,0,9.8    c1.3,1.3,3,2,4.9,2s3.6-0.7,4.9-2l0,0C33.9,65.9,39.5,52.7,41.2,48.8z"/><path fill="#333" d="M58.1,21.4c2.9-2.9,7.6-2.9,10.5,0c2.9,2.9,2.9,7.6,0,10.5c-2.9,2.9-20.8,10.3-20.8,10.3    S55.2,24.3,58.1,21.4z"/></g><path fill="#333" d="M68.6,58.1c2.9,2.9,2.9,7.6,0,10.5c-2.9,2.9-7.6,2.9-10.5,0c-2.9-2.9-10.3-20.8-10.3-20.8   S65.7,55.2,68.6,58.1z"/><path fill="#333" d="M37.6,19c0-4.1,3.3-7.4,7.4-7.4s7.4,3.3,7.4,7.4S45,41,45,41S37.6,23.1,37.6,19z"/></g></svg>
