<svg xmlns:dc="http://purl.org/dc/elements/1.1/" xmlns:cc="http://creativecommons.org/ns#" xmlns:rdf="http://www.w3.org/1999/02/22-rdf-syntax-ns#" xmlns:svg="http://www.w3.org/2000/svg" xmlns="http://www.w3.org/2000/svg" xmlns:sodipodi="http://sodipodi.sourceforge.net/DTD/sodipodi-0.dtd" xmlns:inkscape="http://www.inkscape.org/namespaces/inkscape" viewBox="0 0 8.4666665 10.583333625" version="1.1" x="0px" y="0px"><g transform="translate(0,-288.53332)"><path fill="#007aff" d="m 4.2324219,289.5918 c -1.1674378,0 -2.1152372,0.94975 -2.1152344,2.11718 -2.8e-6,1.16744 0.9477966,2.11524 2.1152344,2.11524 1.1674378,0 2.1171903,-0.9478 2.1171875,-2.11524 2.8e-6,-1.16743 -0.9497497,-2.11718 -2.1171875,-2.11718 z m 0,0.26367 c 1.0244461,0 1.8535181,0.82907 1.8535156,1.85351 2.5e-6,1.02445 -0.8290695,1.85157 -1.8535156,1.85157 -1.0244461,0 -1.851565,-0.82712 -1.8515625,-1.85157 -2.5e-6,-1.02444 0.8271164,-1.85351 1.8515625,-1.85351 z"/><path fill="#007aff" d="m 5.5566406,291.70898 c -1.1674378,0 -2.1171903,0.9478 -2.1171875,2.11524 3.1e-6,1.16743 0.9497539,2.11719 2.1171875,2.11719 1.1674337,0 2.1171845,-0.94976 2.1171875,-2.11719 2.8e-6,-1.16744 -0.9497497,-2.11524 -2.1171875,-2.11524 z m 0,0.26368 c 1.0244462,0 1.851565,0.82711 1.8515625,1.85156 -2.7e-6,1.02444 -0.82712,1.85351 -1.8515625,1.85351 -1.0244424,0 -1.8515598,-0.82907 -1.8515625,-1.85351 -2.5e-6,-1.02445 0.8271164,-1.85156 1.8515625,-1.85156 z"/><path fill="#007aff" d="m 2.9101562,291.70898 c -1.1674378,0 -2.11719027,0.9478 -2.11718745,2.11524 3.06e-6,1.16743 0.94975385,2.11719 2.11718745,2.11719 1.1674337,0 2.1171845,-0.94976 2.1171876,-2.11719 2.8e-6,-1.16744 -0.9497498,-2.11524 -2.1171876,-2.11524 z m 0,0.26368 c 1.0244461,0 1.851565,0.82711 1.8515626,1.85156 -2.7e-6,1.02444 -0.8271201,1.85351 -1.8515626,1.85351 -1.0244424,0 -1.8515598,-0.82907 -1.8515624,-1.85351 -2.5e-6,-1.02445 0.8271163,-1.85156 1.8515624,-1.85156 z"/></g></svg>
