<svg xmlns="http://www.w3.org/2000/svg" xmlns:xlink="http://www.w3.org/1999/xlink" version="1.1" x="0px" y="0px" viewBox="0 0 100 125" enable-background="new 0 0 100 100" xml:space="preserve"><path fill="#fff" d="M78.376,55.078c-2.429-0.959-5.177,0.235-6.136,2.665c-1.369,3.473-4.658,5.718-8.377,5.718  c-4.975,0-9.023-4.048-9.023-9.023s4.048-9.023,9.023-9.023c3.72,0,7.008,2.244,8.377,5.718c0.958,2.43,3.705,3.624,6.136,2.666  c2.43-0.958,3.624-3.705,2.666-6.136c-2.804-7.113-9.547-11.709-17.179-11.709c-3.398,0-6.582,0.926-9.321,2.532l8.713-22.021  c0.961-2.429-0.229-5.178-2.658-6.139c-2.43-0.961-5.177,0.229-6.139,2.658L45.202,36.38l3.406-26.138  c0.338-2.591-1.489-4.964-4.08-5.302c-2.591-0.339-4.965,1.489-5.302,4.08l-3.215,24.672l-0.039-0.072l-0.982-11.064  c-0.231-2.602-2.533-4.52-5.13-4.293c-2.602,0.231-4.525,2.528-4.294,5.13l3.642,41.03L33.31,95.1h28.865l-4.824-23.367  c2.027,0.766,4.22,1.188,6.512,1.188c7.632,0,14.375-4.596,17.179-11.708C82,58.782,80.807,56.036,78.376,55.078z"/></svg>
