<svg xmlns="http://www.w3.org/2000/svg" data-name="Layer 1" viewBox="0 0 99 123.75" x="0px" y="0px"><path fill="#333" d="M49.53,35.38A13.94,13.94,0,1,0,63.47,49.32,14,14,0,0,0,49.53,35.38Zm0,24.88A10.94,10.94,0,1,1,60.47,49.32,11,11,0,0,1,49.53,60.26ZM48,27V17.67a1.5,1.5,0,0,1,3,0V27A1.5,1.5,0,1,1,48,27Zm3,43.48v9.34a1.5,1.5,0,0,1-3,0V70.49A1.5,1.5,0,0,1,51,70.49ZM27.34,51H18a1.5,1.5,0,0,1,0-3h9.34A1.5,1.5,0,0,1,27.34,51Zm54.32-1.5a1.5,1.5,0,0,1-1.5,1.5H70.82a1.5,1.5,0,0,1,0-3h9.34A1.5,1.5,0,0,1,81.67,49.5ZM37,30.88l-3-5.21a1.5,1.5,0,0,1,2.6-1.5l3,5.21A1.5,1.5,0,1,1,37,30.88ZM23.7,34.63a1.5,1.5,0,0,1,2-.55l5.21,3a1.5,1.5,0,1,1-1.5,2.6l-5.21-3A1.5,1.5,0,0,1,23.7,34.63Zm8.06,25.32a1.5,1.5,0,0,1-.55,2L26,65a1.5,1.5,0,1,1-1.5-2.6l5.21-3A1.5,1.5,0,0,1,31.76,59.95ZM40,69.52l-3,5.21a1.5,1.5,0,0,1-2.6-1.5l3-5.21A1.5,1.5,0,1,1,40,69.52ZM65.33,73a1.5,1.5,0,1,1-2.6,1.5l-3-5.2a1.5,1.5,0,1,1,2.6-1.5Zm10.27-9a1.5,1.5,0,0,1-2,.55l-5.21-3a1.5,1.5,0,1,1,1.5-2.6l5.21,3A1.5,1.5,0,0,1,75.61,64ZM67.55,38.7a1.5,1.5,0,0,1,.55-2l5.21-3a1.5,1.5,0,0,1,1.5,2.6l-5.21,3A1.5,1.5,0,0,1,67.55,38.7Zm-8.26-9.57,3-5.21a1.5,1.5,0,1,1,2.6,1.5l-3,5.21A1.5,1.5,0,0,1,59.29,29.12Z"/></svg>
