<svg xmlns:dc="http://purl.org/dc/elements/1.1/" xmlns:cc="http://creativecommons.org/ns#" xmlns:rdf="http://www.w3.org/1999/02/22-rdf-syntax-ns#" xmlns:svg="http://www.w3.org/2000/svg" xmlns="http://www.w3.org/2000/svg" xmlns:sodipodi="http://sodipodi.sourceforge.net/DTD/sodipodi-0.dtd" xmlns:inkscape="http://www.inkscape.org/namespaces/inkscape" version="1.1" x="0px" y="0px" viewBox="0 0 100 125"><g transform="translate(0,-952.36218)"><path fill="#007aff" d="M 12.78125 10.96875 A 2.0002 2.0002 0 0 0 11.59375 14.40625 L 47.1875 50 L 11.59375 85.5625 A 2.0002 2.0002 0 1 0 14.40625 88.40625 L 50 52.8125 L 85.59375 88.40625 A 2.0002 2.0002 0 1 0 88.40625 85.5625 L 52.8125 50 L 88.40625 14.40625 A 2.0002 2.0002 0 0 0 86.75 10.96875 A 2.0002 2.0002 0 0 0 85.59375 11.5625 L 50 47.15625 L 14.40625 11.5625 A 2.0002 2.0002 0 0 0 12.78125 10.96875 z " transform="translate(0,952.36218)"/></g></svg>
