<svg xmlns:dc="http://purl.org/dc/elements/1.1/" xmlns:cc="http://creativecommons.org/ns#" xmlns:rdf="http://www.w3.org/1999/02/22-rdf-syntax-ns#" xmlns:svg="http://www.w3.org/2000/svg" xmlns="http://www.w3.org/2000/svg" xmlns:sodipodi="http://sodipodi.sourceforge.net/DTD/sodipodi-0.dtd" xmlns:inkscape="http://www.inkscape.org/namespaces/inkscape" viewBox="0 0 8.4666665 10.583333625" version="1.1" x="0px" y="0px"><g transform="translate(0,-288.53332)"><path fill="#007aff" d="m 1.1916157,289.85624 c -0.1777101,-8.6e-4 -0.1777101,0.26642 0,0.26556 l 0.6693806,0 c 0.1705478,0 0.3210095,0.10941 0.3741719,0.27331 l 0.9042055,2.78893 -0.4319748,0.30225 c -0.11712,0.082 -0.1971447,0.21827 -0.1971499,0.37871 l 0,0.0253 c 0,0.25397 0.2087267,0.46292 0.4624248,0.46292 l 4.4240018,0 c 0.1919325,0.0172 0.1919325,-0.28074 0,-0.26349 l -4.4240018,0 c -0.1110008,0 -0.1992142,-0.0885 -0.1992142,-0.19943 l 0,-0.0253 c 1.5e-6,-0.0551 0.050276,-0.13707 0.086189,-0.16223 l 0.4877136,-0.34151 3.1714291,0 c 0.1709888,0 0.322182,-0.11045 0.3746881,-0.27331 L 7.511766,291.1701 c 0.081336,-0.25239 -0.1113557,-0.51924 -0.3762363,-0.51924 l -3.8330681,0 c -0.1919327,-0.0172 -0.1919327,0.28075 0,0.2635 l 3.8330681,0 c 0.092157,0 0.1531816,0.0842 0.1243799,0.1736 l -0.1145738,0.35546 -3.3262591,0 c -0.1768281,0.009 -0.1628958,0.27484 0.013934,0.26556 l 3.2266519,0 -0.170829,0.52958 -2.5407559,0 c -0.1623886,0.0204 -0.1501964,0.25977 0.013419,0.26349 l 2.4426987,0 -0.1625712,0.50375 c -0.017799,0.0552 -0.065963,0.092 -0.1228317,0.092 l -3.1306572,0 -0.9011092,-2.78479 c -0.08801,-0.27139 -0.3415581,-0.45677 -0.6260296,-0.45677 z"/><path fill="#007aff" d="m 3.7002518,294.61869 c -0.290307,0 -0.5286119,0.23858 -0.5286156,0.5292 -3.6e-6,0.29062 0.2383036,0.52918 0.5286156,0.52918 0.2903121,0 0.5266686,-0.23856 0.526665,-0.52918 -3.7e-6,-0.29062 -0.236358,-0.5292 -0.526665,-0.5292 z m 0,0.26362 c 0.1475008,0 0.2633306,0.11792 0.2633325,0.26558 1.8e-6,0.14766 -0.1158289,0.26361 -0.2633325,0.26361 -0.1475035,0 -0.2652849,-0.11595 -0.2652831,-0.26361 1.9e-6,-0.14766 0.1177823,-0.26558 0.2652831,-0.26558 z"/><path fill="#007aff" d="m 6.3413789,294.61869 c -0.290307,0 -0.5286119,0.23858 -0.5286156,0.5292 -3.6e-6,0.29062 0.2383035,0.52918 0.5286156,0.52918 0.290312,0 0.5286192,-0.23856 0.5286155,-0.52918 -3.6e-6,-0.29062 -0.2383085,-0.5292 -0.5286155,-0.5292 z m 0,0.26362 c 0.1475008,0 0.2652812,0.11792 0.2652831,0.26558 1.8e-6,0.14766 -0.1177796,0.26361 -0.2652831,0.26361 -0.1475036,0 -0.2633343,-0.11595 -0.2633325,-0.26361 1.9e-6,-0.14766 0.1158317,-0.26558 0.2633325,-0.26558 z"/></g></svg>
