<svg xmlns="http://www.w3.org/2000/svg" xmlns:xlink="http://www.w3.org/1999/xlink" version="1.1" x="0px" y="0px" viewBox="0 0 100 125" enable-background="new 0 0 100 100" xml:space="preserve"><g><path fill="#007aff" fill-rule="evenodd" clip-rule="evenodd" d="M49.875,24.332c-13.525,0-24.49,10.965-24.49,24.491   c0,13.527,10.965,24.492,24.49,24.492c13.526,0,24.492-10.965,24.492-24.492C74.367,35.297,63.401,24.332,49.875,24.332z    M49.875,69.496c-11.416,0-20.672-9.256-20.672-20.673c0-11.417,9.256-20.672,20.672-20.672c11.418,0,20.674,9.255,20.674,20.672   C70.549,60.24,61.293,69.496,49.875,69.496z"/><path fill="#007aff" fill-rule="evenodd" clip-rule="evenodd" d="M49.75,19.717c1.952,0,3.533,0.338,3.533-2.373c0-2.712-1.581-7.448-3.533-7.448   c-1.951,0-3.533,4.736-3.533,7.448C46.216,20.055,47.798,19.717,49.75,19.717z"/><path fill="#007aff" fill-rule="evenodd" clip-rule="evenodd" d="M49.75,77.783c-1.951,0-3.533-0.339-3.533,2.371c0,2.714,1.582,7.448,3.533,7.448   c1.952,0,3.533-4.734,3.533-7.448C53.282,77.444,51.701,77.783,49.75,77.783z"/><path fill="#007aff" fill-rule="evenodd" clip-rule="evenodd" d="M18.343,45.217c-2.712,0-7.447,1.581-7.447,3.532s4.735,3.534,7.447,3.534   c2.712,0,2.373-1.583,2.373-3.534S21.055,45.217,18.343,45.217z"/><path fill="#007aff" fill-rule="evenodd" clip-rule="evenodd" d="M81.154,45.217c-2.711,0-2.371,1.581-2.371,3.532s-0.34,3.534,2.371,3.534   c2.713,0,7.448-1.583,7.448-3.534S83.867,45.217,81.154,45.217z"/><path fill="#007aff" fill-rule="evenodd" clip-rule="evenodd" d="M29.22,69.279c-1.38-1.38-2.258-2.738-4.176-0.82   c-1.917,1.918-4.147,6.385-2.768,7.764c1.38,1.381,5.847-0.851,7.765-2.768C31.958,71.538,30.6,70.66,29.22,69.279z"/><path fill="#007aff" fill-rule="evenodd" clip-rule="evenodd" d="M70.278,28.22c1.381,1.38,2.259,2.738,4.176,0.82   c1.918-1.917,4.148-6.385,2.769-7.764c-1.379-1.38-5.846,0.851-7.764,2.768S68.898,26.841,70.278,28.22z"/><path fill="#007aff" fill-rule="evenodd" clip-rule="evenodd" d="M70.279,69.278c-1.381,1.382-2.738,2.26-0.82,4.177s6.385,4.148,7.764,2.768   c1.38-1.379-0.85-5.846-2.768-7.764S71.66,67.898,70.279,69.278z"/><path fill="#007aff" fill-rule="evenodd" clip-rule="evenodd" d="M29.22,28.22c1.38-1.379,2.738-2.258,0.821-4.176   c-1.918-1.917-6.384-4.148-7.765-2.768c-1.379,1.379,0.851,5.846,2.769,7.764C26.962,30.958,27.841,29.6,29.22,28.22z"/><path fill="#007aff" fill-rule="evenodd" clip-rule="evenodd" d="M49.75,33.706c-8.309,0-15.044,6.735-15.044,15.044   c0,8.309,6.735,15.044,15.044,15.044c8.308,0,15.044-6.735,15.044-15.044C64.794,40.441,58.058,33.706,49.75,33.706z    M44.673,59.928L49.019,50H43.51l10.451-11.943L50.121,48h5.867L44.673,59.928z"/></g></svg>
