<svg xmlns="http://www.w3.org/2000/svg" xmlns:xlink="http://www.w3.org/1999/xlink" version="1.1" x="0px" y="0px" viewBox="0 0 64 80" enable-background="new 0 0 64 64" xml:space="preserve"><g><path fill="#007aff" d="M26.383,35.808V12.591h3.305l-0.025-0.493c-0.051-1.037-0.763-1.747-1.769-1.765   c-0.285-0.006-0.569-0.007-0.853-0.007l-1.045,0.006c-1.149,0.008-1.893,0.757-1.896,1.908l-0.002,23.915   c0,1.089,0.723,1.873,1.76,1.907c0.347,0.01,0.694,0.016,1.041,0.016c0.347,0,0.694-0.006,1.04-0.016   c0.972-0.029,1.667-0.735,1.729-1.756l0.03-0.498H26.383z"/><path fill="#007aff" d="M56.462,5.985H7.538c-3.183,0-5.763,2.579-5.763,5.762v34.828c0,3.173,2.579,5.763,5.763,5.763h48.923   c3.183,0,5.763-2.589,5.763-5.763V11.747C62.224,8.564,59.645,5.985,56.462,5.985z M59.878,46.575c0,1.879-1.538,3.407-3.417,3.407   H7.538c-1.879,0-3.417-1.528-3.417-3.407V42.02h55.757V46.575z M59.878,39.664H4.122V11.747c0-1.879,1.538-3.417,3.417-3.417   h48.923c1.879,0,3.417,1.538,3.417,3.417V39.664z"/><path fill="#007aff" d="M34.353,46.41c-0.026,1.272-1.098,2.335-2.335,2.335h-0.078c-1.307-0.052-2.309-1.124-2.292-2.44   c0.009-1.316,1.072-2.388,2.353-2.396c0.627,0,1.22,0.253,1.656,0.706C34.117,45.086,34.37,45.73,34.353,46.41z"/><path fill="#007aff" d="M41.589,58.015H22.409c-0.284,0-0.514-0.23-0.514-0.514V56.18c0-0.284,0.23-0.514,0.514-0.514h19.181   c0.284,0,0.514,0.23,0.514,0.514v1.321C42.104,57.785,41.874,58.015,41.589,58.015z"/><path fill="#007aff" d="M41.907,29.018c-0.131,0-0.262-0.011-0.393-0.032c-0.507-0.072-0.986-0.3-1.376-0.658   c-0.471-0.431-0.771-1.012-0.844-1.635c-0.036-0.241-0.029-0.523,0.024-0.824c0.221-1.131,1.131-1.982,2.266-2.127   c0.536-0.067,1.06,0.028,1.533,0.265c0.394-0.345,0.885-0.567,1.415-0.634c0.694-0.088,1.41,0.107,1.954,0.539   c0.558,0.428,0.914,1.054,0.997,1.756c0.039,0.278,0.031,0.565-0.027,0.844c-0.218,1.124-1.129,1.976-2.266,2.115   c-0.531,0.063-1.061-0.031-1.526-0.269c-0.396,0.349-0.887,0.572-1.413,0.637C42.137,29.009,42.022,29.018,41.907,29.018z    M41.915,24.567c-0.074,0-0.15,0.005-0.225,0.014c-0.772,0.099-1.392,0.678-1.541,1.441c-0.035,0.203-0.041,0.393-0.017,0.559   c0.051,0.435,0.255,0.829,0.577,1.122c0.264,0.242,0.587,0.396,0.933,0.445c0.181,0.03,0.336,0.027,0.498,0.007   c0.441-0.055,0.843-0.271,1.135-0.608l0.249-0.288l0.313,0.218c0.364,0.254,0.805,0.364,1.248,0.31   c0.772-0.094,1.391-0.674,1.54-1.442c0.039-0.188,0.045-0.377,0.017-0.569c-0.056-0.483-0.297-0.905-0.678-1.197   c-0.378-0.3-0.849-0.427-1.326-0.366c-0.443,0.055-0.845,0.269-1.132,0.601l-0.245,0.283l-0.311-0.209   C42.638,24.678,42.28,24.567,41.915,24.567z"/><g><g><polygon fill="#007aff" points="30.721,19.587 28.823,19.841 28.823,18.948 30.618,18.722    "/></g></g><g><g><polygon fill="#007aff" points="43.249,21.485 28.982,23.29 28.982,22.388 43.136,20.611    "/></g></g><g><g><rect x="33.495" y="17.708" transform="matrix(0.9921 -0.1255 0.1255 0.9921 -1.9777 4.9268)" fill="#007aff" width="9.208" height="0.891"/></g></g><path fill="#007aff" d="M52.505,28.432l-1.75-13.9c-0.244-1.853-1.584-2.931-3.462-2.707l-14.724,1.847   c-1.374,0.172-2.747,0.344-4.12,0.523l-0.409,0.054v2.288l16.416-2.063c1.033-0.137,2.065-0.262,3.12-0.392   c0.421-0.055,0.815-0.132,0.923,0.742l1.749,13.887c0.087,0.692-0.084,0.917-0.765,1.004l-6.416,0.803l0.048,0.023l-15.075,1.876   v2.289l19.386-2.419l-0.001-0.022l2.336-0.301C51.69,31.727,52.742,30.375,52.505,28.432z"/></g></svg>
