<svg xmlns="http://www.w3.org/2000/svg" xmlns:xlink="http://www.w3.org/1999/xlink" version="1.1" x="0px" y="0px" viewBox="0 0 100 125" enable-background="new 0 0 100 100" xml:space="preserve"><g><path fill="#007aff" d="M42.189,75.771c3.416-2.29,4.262-5.653,3.598-7.811c-0.242-0.793-0.896-2.058-2.589-2.366   c-1.384,1.638-3.572,3.14-6.818,4.205c-4.438,1.45-8.684,1.998-12.438,2.003c-4.551,0-8.365-0.81-10.901-1.804   c-0.7,1.691-1.138,4.78,2.689,7.86C21.59,82.567,35.929,79.964,42.189,75.771z"/><path fill="#007aff" d="M49.33,84.041c0.846-1.535,0.687-3.723-0.38-5.202c-0.52-0.723-1.452-1.514-2.986-1.337   c-0.508,0.477-1.075,0.927-1.709,1.352c-3.651,2.448-9.45,4.363-15.126,5.004c-1.377,0.15-2.708,0.228-3.98,0.228   c-2.396,0-4.59-0.272-6.529-0.799c-0.003,0.93,0.189,2.373,1.182,3.728c1.503,2.052,4.381,3.301,8.554,3.708   C40.301,91.883,47.563,87.239,49.33,84.041z"/><path fill="#007aff" d="M53.472,90.496c-0.076-0.686-0.524-1.64-1.244-2.135c-0.385-0.266-0.816-0.366-1.312-0.315   c-1.633,1.71-3.953,3.229-6.695,4.355c-3.568,1.464-7.717,2.212-12.172,2.212c-1.231,0-2.482-0.058-3.754-0.174   c0.451,1.03,1.265,2.323,2.699,3.375c2.621,1.929,6.489,2.458,11.498,1.584c4.179-0.733,7.379-2.266,9.257-4.437   C53.193,93.296,53.585,91.564,53.472,90.496z"/><path fill="#007aff" d="M87.08,54.021c-3.144-0.036-10.637-0.385-14.021-2.828c-1.796-1.295-3.744-3.292-5.995-5.605   c-2.745-2.817-5.855-6.009-9.735-9.08C49.07,29.98,45,19.768,47.195,11.098c1.338-5.271,1.018-9.043-0.873-10.343   c-1.5-1.031-3.99-0.522-5.534,0.562c-3.787,2.672-9.662,9.327-6.473,23.856c1.759,8.009,8.531,18.305,8.601,18.407   c0.388,0.588,0.408,1.348,0.056,1.957c-0.355,0.611-1.022,0.966-1.726,0.918c-6.071-0.402-22.98-0.261-28.231,5.145   c-2.36,2.429-3.456,5.067-3.253,7.845c0.219,3.047,1.988,5.479,3.05,6.296c0.113,0.087,0.256,0.178,0.412,0.269   c0.013,0.011,0.03,0.017,0.043,0.028c2.785,1.599,11.749,3.577,21.957,0.236c2.647-0.868,4.571-2.138,5.53-3.568   c0.022-0.037,0.047-0.076,0.07-0.109c0.475-0.755,0.684-1.551,0.587-2.356c-0.265-2.243-2.803-4-6.167-4.27   c-8.395-0.668-14.23,2.153-14.287,2.183c-0.916,0.453-2.028,0.08-2.482-0.839c-0.455-0.915-0.086-2.022,0.83-2.483   c0.272-0.134,6.751-3.312,16.231-2.56c5.231,0.418,9.073,3.445,9.563,7.533c0.091,0.766,0.046,1.59-0.156,2.434   c2.095,0.729,3.691,2.366,4.388,4.632c0.627,2.036,0.481,4.705-0.793,7.236c1.339,0.438,2.516,1.311,3.419,2.562   c1.643,2.273,2.048,5.398,1.138,7.994c0.432,0.159,0.84,0.37,1.231,0.639c1.846,1.271,2.683,3.379,2.835,4.8   c0.239,2.232-0.634,5.932-4.264,8.899C65.352,99.289,74.4,87.077,74.496,86.938c0.353-0.478,0.91-0.762,1.504-0.762h11.247   c0.646-1.354,1.817-4.214,2.495-8.32C90.599,72.656,90.798,64.368,87.08,54.021z"/></g></svg>
