<svg xmlns="http://www.w3.org/2000/svg" xmlns:xlink="http://www.w3.org/1999/xlink" version="1.1" x="0px" y="0px" viewBox="0 0 29.238 30.35375" style="enable-background:new 0 0 29.238 24.283;" xml:space="preserve"><g><polygon fill="#fff" points="14.119,15.636 9.957,18.036 5.119,15.244 5.119,19.088 14.119,24.283  "/><polygon fill="#fff" points="24.119,15.243 19.281,18.036 15.119,15.635 15.119,24.283 24.119,19.088  "/><path fill="#fff" d="M19.281,0L14.62,2.69h-0.001h-0.001L9.957,0L0,5.748L4.662,8.44L0,11.134l9.957,5.748l4.661-2.689l0.001-0.001l0.001,0.001   l4.661,2.689l9.957-5.748L24.576,8.44l4.662-2.692L19.281,0z M14.659,13.035l-0.021-0.012l-0.019,0.012L6.659,8.44l7.96-4.595   l0.019,0.012l0.021-0.012l7.96,4.595L14.659,13.035z"/></g></svg>
