<svg xmlns="http://www.w3.org/2000/svg" xmlns:xlink="http://www.w3.org/1999/xlink" version="1.1" x="0px" y="0px" viewBox="0 0 100 100" enable-background="new 0 0 100 100" xml:space="preserve"><path fill="#fff" d="M83.8,76.185C81.844,63.848,71.567,54.52,59.848,51.07c5.036-5.578,7.716-14.676,7.726-20.844  c0.002-1.136-0.115-2.277-0.329-3.406c3.763-2.044,5.859-5.598,6.953-11.191c-1.023,2.558-7.811,4.267-13.108-1.005  c-8.991-8.951-17.745-4.95-19.792-2.776l-0.846,1.785c-0.87-0.089-1.651-0.018-2.172,0.25c0,0-10.177,2.948-7.475,21.827  c0.406-0.085,1.016-0.43,1.74-0.931c0.932,5.579,3.422,12.041,7.361,16.363C28.289,54.65,18.141,63.934,16.199,76.185  c-0.804,5.074,5.118,8.442,8.95,10.167c7.518,3.383,16.105,4.536,24.285,4.595c8.279,0.06,16.935-1.012,24.616-4.248  C78.077,85.001,84.651,81.552,83.8,76.185z"></path></svg>
