<svg xmlns="http://www.w3.org/2000/svg" xmlns:xlink="http://www.w3.org/1999/xlink" version="1.1" x="0px" y="0px" viewBox="0 0 100 125" enable-background="new 0 0 100 100" xml:space="preserve"><path fill="#fff" d="M53.6,36.7c-0.3-0.6-2.5-1-3.6-1s-2.5,0.2-3.1,0.5c-0.6,0.3-1,2.5-1,3.6s0.5,3.4,1,3.6c0.6,0.3,1.9,0.5,3.1,0.5  s2.5-0.2,3.1-0.5c0.6-0.3,1-2.5,1-3.6S53.9,37.3,53.6,36.7z"/><path fill="#007aff" d="M53.6,46.9c-0.3-0.6-2.5-1-3.6-1s-2.5,0.2-3.1,0.5c-0.6,0.3-1,2.5-1,3.6s0.5,3.4,1,3.6c0.6,0.3,1.9,0.5,3.1,0.5  s2.5-0.2,3.1-0.5c0.6-0.3,1-2.5,1-3.6S53.9,47.5,53.6,46.9z"/><path fill="#fff" d="M63.3,46.4c-0.6-0.3-1.9-0.5-3.1-0.5s-2.5,0.2-3.1,0.5c-0.6,0.3-1,2.5-1,3.6s0.2,2.5,0.5,3.1s2.5,1,3.6,1s2.5-0.2,3.1-0.5  c0.6-0.3,1-2.5,1-3.6S63.9,46.6,63.3,46.4z"/><path fill="#fff" d="M80.7,45.9c-1.1,0-3.4,0.5-3.6,1c-0.3,0.6-0.5,1.9-0.5,3.1s0.2,2.5,0.5,3.1c0.3,0.6,2.5,1,3.6,1s2.5-0.2,3.1-0.5  c0.6-0.3,1-2.5,1-3.6s-0.2-2.5-0.5-3.1C84.1,46.4,81.8,45.9,80.7,45.9z"/><path fill="#007aff" d="M83.8,36.1c-0.6-0.3-1.9-0.5-3.1-0.5s-2.5,0.2-3.1,0.5c-0.6,0.3-1,2.5-1,3.6s0.2,2.5,0.5,3.1c0.3,0.6,2.5,1,3.6,1  s2.5-0.2,3.1-0.5c0.6-0.3,1-2.5,1-3.6S84.3,36.4,83.8,36.1z"/><path fill="#fff" d="M63.9,36.7c-0.3-0.6-2.5-1-3.6-1s-2.5,0.2-3.1,0.5c-0.6,0.3-1,2.5-1,3.6s0.5,3.4,1,3.6c0.6,0.3,1.9,0.5,3.1,0.5  s2.5-0.2,3.1-0.5c0.6-0.3,1-2.5,1-3.6S64.1,37.3,63.9,36.7z"/><path fill="#007aff" d="M63.9,26.5c-0.3-0.6-2.5-1-3.6-1s-2.5,0.2-3.1,0.5c-0.6,0.3-1,2.5-1,3.6s0.2,2.5,0.5,3.1s2.5,1,3.6,1s3.4-0.5,3.6-1  s0.5-1.9,0.5-3.1S64.1,27,63.9,26.5z"/><path fill="#fff" d="M84.3,26.5c-0.3-0.6-2.5-1-3.6-1s-3.4,0.5-3.6,1c-0.3,0.6-0.5,1.9-0.5,3.1s0.2,2.5,0.5,3.1c0.3,0.6,2.5,1,3.6,1  s2.5-0.2,3.1-0.5c0.6-0.3,1-2.5,1-3.6S84.6,27,84.3,26.5z"/><path fill="#007aff" d="M84.3,16.2c-0.3-0.6-2.5-1-3.6-1s-2.5,0.2-3.1,0.5c-0.6,0.3-1,2.5-1,3.6s0.5,3.4,1,3.6s1.9,0.5,3.1,0.5s2.5-0.2,3.1-0.5  s1-2.5,1-3.6S84.6,16.8,84.3,16.2z"/><path fill="#fff" d="M90.9,25.5c-1.1,0-2.5,0.2-3.1,0.5c-0.6,0.3-1,2.5-1,3.6s0.5,3.4,1,3.6c0.6,0.3,1.9,0.5,3.1,0.5s2.5-0.2,3.1-0.5  c0.6-0.3,1-2.5,1-3.6s-0.2-2.5-0.5-3.1S92,25.5,90.9,25.5z"/><path fill="#007aff" d="M90.9,35.7c-1.1,0-3.4,0.5-3.6,1s-0.5,1.9-0.5,3.1s0.2,2.5,0.5,3.1s2.5,1,3.6,1s2.5-0.2,3.1-0.5c0.6-0.3,1-2.5,1-3.6  s-0.2-2.5-0.5-3.1S92,35.7,90.9,35.7z"/><path fill="#fff" d="M73.5,46.4c-0.6-0.3-1.9-0.5-3.1-0.5s-2.5,0.2-3.1,0.5c-0.6,0.3-1,2.5-1,3.6s0.2,2.5,0.5,3.1s2.5,1,3.6,1s2.5-0.2,3.1-0.5  c0.6-0.3,1-2.5,1-3.6S74.1,46.6,73.5,46.4z"/><path fill="#007aff" d="M73.5,36.1c-0.6-0.3-1.9-0.5-3.1-0.5s-2.5,0.2-3.1,0.5c-0.6,0.3-1,2.5-1,3.6s0.2,2.5,0.5,3.1s2.5,1,3.6,1s2.5-0.2,3.1-0.5  c0.6-0.3,1-2.5,1-3.6S74.1,36.4,73.5,36.1z"/><path fill="#fff" d="M74.1,26.5c-0.3-0.6-2.5-1-3.6-1s-2.5,0.2-3.1,0.5c-0.6,0.3-1,2.5-1,3.6s0.5,3.4,1,3.6c0.6,0.3,1.9,0.5,3.1,0.5  s2.5-0.2,3.1-0.5c0.6-0.3,1-2.5,1-3.6S74.3,27,74.1,26.5z"/><path fill="#007aff" d="M74.1,16.2c-0.3-0.6-2.5-1-3.6-1s-2.5,0.2-3.1,0.5c-0.6,0.3-1,2.5-1,3.6s0.2,2.5,0.5,3.1s2.5,1,3.6,1s3.4-0.5,3.6-1  c0.3-0.6,0.5-1.9,0.5-3.1S74.3,16.8,74.1,16.2z"/><path fill="#fff" d="M70.5,56.1c-1.1,0-3.4,0.5-3.6,1s-0.5,1.9-0.5,3.1s0.2,2.5,0.5,3.1s2.5,1,3.6,1s2.5-0.2,3.1-0.5c0.6-0.3,1-2.5,1-3.6  s-0.2-2.5-0.5-3.1C73.8,56.6,71.6,56.1,70.5,56.1z"/><path fill="#007aff" d="M63.3,74.1c0.6-0.3,1-2.5,1-3.6s-0.2-2.5-0.5-3.1s-2.5-1-3.6-1s-3.4,0.5-3.6,1s-0.5,1.9-0.5,3.1s0.2,2.5,0.5,3.1  s2.5,1,3.6,1S62.7,74.3,63.3,74.1z"/><path fill="#fff" d="M50,76.6c-1.1,0-3.4,0.5-3.6,1c-0.3,0.6-0.5,1.9-0.5,3.1s0.2,2.5,0.5,3.1c0.3,0.6,2.5,1,3.6,1s2.5-0.2,3.1-0.5  c0.6-0.3,1-2.5,1-3.6s-0.2-2.5-0.5-3.1C53.4,77.1,51.1,76.6,50,76.6z"/><path fill="#007aff" d="M63.3,56.6c-0.6-0.3-1.9-0.5-3.1-0.5s-2.5,0.2-3.1,0.5c-0.6,0.3-1,2.5-1,3.6s0.2,2.5,0.5,3.1s2.5,1,3.6,1s2.5-0.2,3.1-0.5  c0.6-0.3,1-2.5,1-3.6S63.9,56.8,63.3,56.6z"/><path fill="#fff" d="M53.1,56.6c-0.6-0.3-1.9-0.5-3.1-0.5s-2.5,0.2-3.1,0.5c-0.6,0.3-1,2.5-1,3.6s0.2,2.5,0.5,3.1c0.3,0.6,2.5,1,3.6,1  s2.5-0.2,3.1-0.5c0.6-0.3,1-2.5,1-3.6S53.6,56.8,53.1,56.6z"/><path fill="#007aff" d="M53.1,66.8c-0.6-0.3-1.9-0.5-3.1-0.5s-2.5,0.2-3.1,0.5s-1,2.5-1,3.6s0.2,2.5,0.5,3.1c0.3,0.6,2.5,1,3.6,1s2.5-0.2,3.1-0.5  c0.6-0.3,1-2.5,1-3.6S53.6,67.1,53.1,66.8z"/><path fill="#fff" d="M36.1,53.1c0.3,0.6,2.5,1,3.6,1s3.4-0.5,3.6-1s0.5-1.9,0.5-3.1s-0.2-2.5-0.5-3.1s-2.5-1-3.6-1s-2.5,0.2-3.1,0.5  c-0.6,0.3-1,2.5-1,3.6S35.9,52.5,36.1,53.1z"/><path fill="#007aff" d="M15.7,53.1c0.3,0.6,2.5,1,3.6,1s2.5-0.2,3.1-0.5c0.6-0.3,1-2.5,1-3.6s-0.5-3.4-1-3.6c-0.6-0.3-1.9-0.5-3.1-0.5  s-2.5,0.2-3.1,0.5c-0.6,0.3-1,2.5-1,3.6S15.4,52.5,15.7,53.1z"/><path fill="#fff" d="M15.7,42.8c0.3,0.6,2.5,1,3.6,1s3.4-0.5,3.6-1c0.3-0.6,0.5-1.9,0.5-3.1s-0.2-2.5-0.5-3.1c-0.3-0.6-2.5-1-3.6-1  s-2.5,0.2-3.1,0.5c-0.6,0.3-1,2.5-1,3.6S15.4,42.3,15.7,42.8z"/><path fill="#007aff" d="M36.1,42.8c0.3,0.6,2.5,1,3.6,1s2.5-0.2,3.1-0.5c0.6-0.3,1-2.5,1-3.6s-0.2-2.5-0.5-3.1s-2.5-1-3.6-1s-3.4,0.5-3.6,1  s-0.5,1.9-0.5,3.1S35.9,42.3,36.1,42.8z"/><path fill="#fff" d="M35.7,29.5c0,1.1,0.5,3.4,1,3.6c0.6,0.3,1.9,0.5,3.1,0.5s2.5-0.2,3.1-0.5c0.6-0.3,1-2.5,1-3.6s-0.2-2.5-0.5-3.1  s-2.5-1-3.6-1s-2.5,0.2-3.1,0.5C36.1,26.2,35.7,28.4,35.7,29.5z"/><path fill="#007aff" d="M16.2,33.2c0.6,0.3,1.9,0.5,3.1,0.5s2.5-0.2,3.1-0.5c0.6-0.3,1-2.5,1-3.6S23.2,27,23,26.5c-0.3-0.6-2.5-1-3.6-1  s-2.5,0.2-3.1,0.5c-0.6,0.3-1,2.5-1,3.6S15.7,32.9,16.2,33.2z"/><path fill="#fff" d="M15.2,19.3c0,1.1,0.2,2.5,0.5,3.1c0.3,0.6,2.5,1,3.6,1s3.4-0.5,3.6-1c0.3-0.6,0.5-1.9,0.5-3.1s-0.2-2.5-0.5-3.1  c-0.3-0.6-2.5-1-3.6-1s-2.5,0.2-3.1,0.5C15.7,15.9,15.2,18.2,15.2,19.3z"/><path fill="#007aff" d="M5,29.5c0,1.1,0.2,2.5,0.5,3.1s2.5,1,3.6,1s3.4-0.5,3.6-1s0.5-1.9,0.5-3.1S13,27,12.7,26.5s-2.5-1-3.6-1S6.6,25.7,6,25.9  C5.5,26.2,5,28.4,5,29.5z"/><path fill="#fff" d="M9.1,43.9c1.1,0,2.5-0.2,3.1-0.5c0.6-0.3,1-2.5,1-3.6s-0.5-3.4-1-3.6c-0.6-0.3-1.9-0.5-3.1-0.5S6.6,35.9,6,36.1  c-0.6,0.3-1,2.5-1,3.6s0.2,2.5,0.5,3.1S8,43.9,9.1,43.9z"/><path fill="#007aff" d="M33.2,46.9c-0.3-0.6-2.5-1-3.6-1s-2.5,0.2-3.1,0.5c-0.6,0.3-1,2.5-1,3.6s0.2,2.5,0.5,3.1c0.3,0.6,2.5,1,3.6,1s3.4-0.5,3.6-1  s0.5-1.9,0.5-3.1S33.4,47.5,33.2,46.9z"/><path fill="#fff" d="M33.2,36.7c-0.3-0.6-2.5-1-3.6-1s-2.5,0.2-3.1,0.5c-0.6,0.3-1,2.5-1,3.6s0.2,2.5,0.5,3.1c0.3,0.6,2.5,1,3.6,1s3.4-0.5,3.6-1  s0.5-1.9,0.5-3.1S33.4,37.3,33.2,36.7z"/><path fill="#007aff" d="M33.2,26.5c-0.3-0.6-2.5-1-3.6-1s-3.4,0.5-3.6,1c-0.3,0.6-0.5,1.9-0.5,3.1s0.2,2.5,0.5,3.1c0.3,0.6,2.5,1,3.6,1  s2.5-0.2,3.1-0.5c0.6-0.3,1-2.5,1-3.6S33.4,27,33.2,26.5z"/><path fill="#fff" d="M33.2,16.2c-0.3-0.6-2.5-1-3.6-1s-2.5,0.2-3.1,0.5c-0.6,0.3-1,2.5-1,3.6s0.5,3.4,1,3.6s1.9,0.5,3.1,0.5s2.5-0.2,3.1-0.5  s1-2.5,1-3.6S33.4,16.8,33.2,16.2z"/><path fill="#007aff" d="M32.6,56.6c-0.6-0.3-1.9-0.5-3.1-0.5s-2.5,0.2-3.1,0.5c-0.6,0.3-1,2.5-1,3.6s0.2,2.5,0.5,3.1c0.3,0.6,2.5,1,3.6,1  s2.5-0.2,3.1-0.5c0.6-0.3,1-2.5,1-3.6S33.2,56.8,32.6,56.6z"/><path fill="#fff" d="M36.1,73.5c0.3,0.6,2.5,1,3.6,1s2.5-0.2,3.1-0.5c0.6-0.3,1-2.5,1-3.6s-0.5-3.4-1-3.6s-1.9-0.5-3.1-0.5s-2.5,0.2-3.1,0.5  s-1,2.5-1,3.6S35.9,73,36.1,73.5z"/><path fill="#007aff" d="M36.1,63.3c0.3,0.6,2.5,1,3.6,1s3.4-0.5,3.6-1s0.5-1.9,0.5-3.1s-0.2-2.5-0.5-3.1s-2.5-1-3.6-1s-2.5,0.2-3.1,0.5  c-0.6,0.3-1,2.5-1,3.6S35.9,62.7,36.1,63.3z"/></svg>
