<svg version="1.1" xmlns="http://www.w3.org/2000/svg" xmlns:xlink="http://www.w3.org/1999/xlink" x="0px" y="0px" viewBox="0 0 48 48" style="enable-background:new 0 0 48 48;" xml:space="preserve">
<polygon style="fill:#E91E63;" points="24,5 24,24 14.5,7.546 "></polygon>
<polygon style="fill:#FF5722;" points="33.5,7.546 40.454,14.5 24,24 "></polygon>
<polygon style="fill:#F44336;" points="24,5 33.5,7.546 24,24 "></polygon>
<polygon style="fill:#8BC34A;" points="24,43 24,24 33.5,40.454 "></polygon>
<polygon style="fill:#03A9F4;" points="14.5,40.454 7.546,33.5 24,24 "></polygon>
<polygon style="fill:#4CAF50;" points="24,43 14.5,40.454 24,24 "></polygon>
<polygon style="fill:#FF9800;" points="43,24 24,24 40.454,14.5 "></polygon>
<polygon style="fill:#FFEB3B;" points="40.454,33.5 33.5,40.454 24,24 "></polygon>
<polygon style="fill:#FFC107;" points="43,24 40.454,33.5 24,24 "></polygon>
<polygon style="fill:#3F51B5;" points="5,24 24,24 7.546,33.5 "></polygon>
<polygon style="fill:#9C27B0;" points="7.546,14.5 14.5,7.546 24,24 "></polygon>
<polygon style="fill:#673AB7;" points="5,24 7.546,14.5 24,24 "></polygon>
</svg>
