<svg xmlns="http://www.w3.org/2000/svg" xmlns:xlink="http://www.w3.org/1999/xlink" version="1.1" x="0px" y="0px" viewBox="0 0 100 125" enable-background="new 0 0 100 100" xml:space="preserve"><path fill="#8492a6" d="M43.546,15.975c4.524-1.032,9.099-1.13,13.684-0.501c3.065,0.42,6.082,1.037,8.599,3.171  c0.701-1.035,0.725-1.945-0.213-2.681c-0.991-0.778-2.122-1.452-3.294-1.908c-2.716-1.056-5.597-1.39-8.491-1.519  c-4.357-0.195-8.679,0.063-12.804,1.61c-1.14,0.428-2.225,1.14-3.167,1.923c-0.879,0.73-0.808,1.646-0.084,2.575  C39.402,17.12,41.443,16.454,43.546,15.975z"/><path fill="#8492a6" d="M63.221,22.24c-0.767-0.744-1.659-1.514-2.641-1.846c-1.93-0.654-3.936-1.211-5.953-1.452  c-3.796-0.454-7.591-0.224-11.179,1.243c-1.124,0.46-2.181,1.22-3.084,2.045c-0.861,0.786-0.792,1.799-0.14,2.627  c3.793-4.483,18.782-4.813,23.198-0.006C63.979,23.89,64.014,23.01,63.221,22.24z"/><path fill="#8492a6" d="M60.389,31.159c0.526-1.275,0.286-2.398-0.58-3.207c-0.849-0.794-1.847-1.536-2.915-1.966  c-3.184-1.282-6.485-1.331-9.709-0.185c-1.202,0.427-2.341,1.199-3.32,2.034c-0.954,0.813-1.239,1.995-0.678,3.335  c2.286-2.833,5.343-3.49,8.614-3.492C55.093,27.676,58.157,28.377,60.389,31.159z"/><path fill="#8492a6" d="M49.978,31.469c-1.581,0.228-3.061,0.737-4.205,1.93c-0.834,0.87-0.987,1.721-0.529,2.643  c2.238-3.269,10.121-3.817,13.15-0.018c0.422-1.315,0.01-2.388-1.381-3.293C54.856,31.326,52.455,31.112,49.978,31.469z"/><path fill="#8492a6" d="M60.422,41.67c-5.749-0.031-11.501-0.028-17.251-0.001c-5.962,0.027-9.252,5.297-8.118,11.926  c1.254,7.329,2.338,13.633,3.279,19.112c0.829,4.828,1.558,9.095,2.214,12.894c0.457,2.649,3.119,4.436,6.398,4.445  c3.227,0.009,6.453,0.01,9.679-0.001c3.242-0.011,5.915-1.805,6.365-4.418c1.387-8.059,3.159-18.384,5.506-32.086  C69.614,46.993,66.311,41.702,60.422,41.67z M51.784,61.314c-3.406,0-6.167-2.761-6.167-6.167s2.761-6.167,6.167-6.167  s6.167,2.761,6.167,6.167S55.19,61.314,51.784,61.314z"/></svg>
