<svg xmlns="http://www.w3.org/2000/svg" xmlns:xlink="http://www.w3.org/1999/xlink" version="1.1" x="0px" y="0px" viewBox="0 0 100 125" enable-background="new 0 0 100 100" xml:space="preserve"><rect fill="#fff" x="42.429" y="0.429" transform="matrix(0.7071 0.7071 -0.7071 0.7071 42.9292 -17.7819)" width="1" height="85.001"/><rect fill="#fff" x="56.571" y="14.571" transform="matrix(0.7071 0.7071 -0.7071 0.7071 57.071 -23.6396)" width="1" height="85"/><path fill="#fff" d="M76.252,26.047l4.95-4.95l-0.531-0.53l-4.949,4.95l-1.06-1.06l2.475-2.475c0.059-0.059,0.097-0.136,0.106-0.219l0.382-3.098  l0.572-0.572l-0.531-0.53l-0.663,0.663c-0.059,0.059-0.097,0.136-0.106,0.219l-0.382,3.098l-2.384,2.383l-2.563-2.563  c-0.188-0.188-0.52-0.188-0.707,0l-7.07,7.071c-0.195,0.195-0.195,0.512,0,0.707l1.149,1.149l-2.078,2.077  c-0.06,0.059-0.098,0.136-0.107,0.219l-0.382,3.098l-2.383,2.383l-2.563-2.563c-0.195-0.195-0.512-0.195-0.707,0l-7.071,7.071  c-0.094,0.094-0.146,0.221-0.146,0.354s0.053,0.26,0.146,0.354l1.149,1.149l-2.077,2.078c-0.059,0.059-0.097,0.136-0.107,0.219  l-0.382,3.098l-2.384,2.383l-2.563-2.563c-0.188-0.188-0.52-0.188-0.707,0l-7.071,7.071c-0.195,0.195-0.195,0.512,0,0.707  l1.149,1.149l-2.077,2.077c-0.059,0.06-0.097,0.137-0.107,0.22l-0.382,3.099l-2.384,2.383l-2.563-2.563  c-0.195-0.195-0.512-0.195-0.707,0l-7.071,7.07c-0.094,0.094-0.146,0.221-0.146,0.354s0.053,0.26,0.146,0.354l1.149,1.149  l-2.078,2.078c-0.059,0.059-0.097,0.136-0.107,0.219l-0.381,3.098l-0.97,0.969l0.53,0.531l1.061-1.061  c0.059-0.06,0.097-0.137,0.107-0.22l0.381-3.098l1.986-1.987l2.475,2.475l-4.95,4.949l0.53,0.531l4.95-4.95l2.386,2.386  c0.094,0.094,0.221,0.146,0.354,0.146s0.26-0.053,0.354-0.146l7.071-7.071c0.094-0.094,0.146-0.221,0.146-0.354  s-0.053-0.26-0.146-0.354l-2.386-2.386l6.364-6.364l2.386,2.387c0.094,0.094,0.221,0.146,0.354,0.146s0.26-0.053,0.354-0.146  l7.071-7.071c0.195-0.195,0.195-0.512,0-0.707l-2.387-2.387l6.364-6.364l2.387,2.387c0.098,0.098,0.226,0.146,0.354,0.146  s0.256-0.049,0.354-0.146l7.071-7.071c0.094-0.094,0.146-0.221,0.146-0.354s-0.053-0.26-0.146-0.354l-2.387-2.386l6.364-6.364  l2.386,2.386c0.094,0.094,0.221,0.146,0.354,0.146s0.26-0.053,0.354-0.146l7.071-7.071c0.094-0.094,0.146-0.221,0.146-0.354  s-0.053-0.26-0.146-0.354L76.252,26.047z M28.787,77.577l-6.364-6.364l6.364-6.363l6.364,6.363L28.787,77.577z M33.294,67.943  l-1.06-1.06l2.475-2.474c0.059-0.06,0.097-0.137,0.107-0.22l0.382-3.099l1.986-1.986l2.474,2.474L33.294,67.943z M42.929,63.436  l-6.364-6.364l6.364-6.364l6.364,6.364L42.929,63.436z M47.436,53.8l-1.06-1.06l2.475-2.475c0.059-0.059,0.097-0.136,0.107-0.219  l0.382-3.098l1.986-1.986l2.474,2.474L47.436,53.8z M57.071,49.293l-6.364-6.364l6.364-6.364l6.364,6.364L57.071,49.293z   M61.579,39.658l-1.06-1.06l2.475-2.475c0.059-0.059,0.097-0.136,0.106-0.219l0.382-3.098l1.987-1.986l2.474,2.475L61.579,39.658z   M71.213,35.151l-6.363-6.364l6.363-6.364l6.364,6.364L71.213,35.151z"/><path fill="#fff" d="M71.184,32.191c-0.901,0-1.749-0.351-2.387-0.989c-0.637-0.637-0.988-1.485-0.988-2.386s0.352-1.749,0.988-2.387  c1.275-1.274,3.498-1.274,4.773,0c0.637,0.638,0.988,1.485,0.988,2.387s-0.352,1.749-0.989,2.386  C72.933,31.84,72.086,32.191,71.184,32.191z M71.184,26.191c-0.701,0-1.36,0.273-1.856,0.769c-0.495,0.496-0.769,1.155-0.769,1.856  s0.273,1.36,0.769,1.856c0.992,0.992,2.722,0.992,3.712,0c0.496-0.496,0.77-1.155,0.77-1.856s-0.273-1.36-0.77-1.856  C72.544,26.464,71.885,26.191,71.184,26.191z"/><path fill="#fff" d="M57.071,46.304c-0.901,0-1.749-0.351-2.387-0.988c-0.637-0.637-0.988-1.485-0.988-2.386c0-0.902,0.352-1.75,0.989-2.387  c1.273-1.274,3.498-1.274,4.771,0c0.638,0.637,0.989,1.485,0.989,2.387c0,0.901-0.352,1.749-0.989,2.386  C58.82,45.953,57.973,46.304,57.071,46.304z M57.071,40.304c-0.701,0-1.36,0.273-1.855,0.769c-0.496,0.496-0.77,1.155-0.77,1.856  c0,0.701,0.273,1.36,0.769,1.856c0.992,0.991,2.721,0.991,3.713,0c0.495-0.496,0.769-1.155,0.769-1.856  c0-0.702-0.273-1.361-0.769-1.856C58.432,40.577,57.772,40.304,57.071,40.304z"/><path fill="#fff" d="M42.929,60.446c-0.902,0-1.75-0.352-2.387-0.989c-0.637-0.637-0.988-1.484-0.988-2.386s0.351-1.749,0.988-2.387  c1.273-1.273,3.498-1.275,4.773,0.001c0.637,0.637,0.988,1.484,0.988,2.386s-0.351,1.749-0.988,2.386  C44.678,60.095,43.831,60.446,42.929,60.446z M42.929,54.446c-0.702,0-1.361,0.273-1.856,0.769  c-0.496,0.496-0.769,1.155-0.769,1.856s0.273,1.36,0.769,1.856c0.991,0.99,2.721,0.99,3.712,0c0.496-0.496,0.769-1.155,0.769-1.856  s-0.273-1.36-0.769-1.855C44.29,54.72,43.63,54.446,42.929,54.446z"/><path fill="#fff" d="M28.787,74.588c-0.901,0-1.749-0.351-2.386-0.987c-1.315-1.316-1.315-3.458,0-4.773c1.274-1.275,3.498-1.274,4.773-0.001  c1.315,1.316,1.315,3.458,0,4.773C30.536,74.237,29.688,74.588,28.787,74.588z M28.787,68.588c-0.701,0-1.36,0.273-1.856,0.769  c-1.023,1.024-1.023,2.689,0,3.714c0.991,0.99,2.72,0.991,3.712-0.001c1.023-1.023,1.023-2.688,0-3.713  C30.147,68.861,29.488,68.588,28.787,68.588z"/></svg>
