<svg xmlns:dc="http://purl.org/dc/elements/1.1/" xmlns:cc="http://creativecommons.org/ns#" xmlns:rdf="http://www.w3.org/1999/02/22-rdf-syntax-ns#" xmlns:svg="http://www.w3.org/2000/svg" xmlns="http://www.w3.org/2000/svg" xmlns:sodipodi="http://sodipodi.sourceforge.net/DTD/sodipodi-0.dtd" xmlns:inkscape="http://www.inkscape.org/namespaces/inkscape" viewBox="0 0 8.4666665 10.583333625" version="1.1" x="0px" y="0px"><g transform="translate(0,-288.53332)"><path fill="#ff9500" d="m 4.2333328,289.85624 c 1.0244456,0 1.8520834,0.82764 1.8520834,1.85208 0,0.0233 -0.00278,0.0457 -0.00362,0.0687 -0.1683649,-0.0432 -0.3438578,-0.0687 -0.5255498,-0.0687 -0.5005573,0 -0.9602126,0.17524 -1.3229167,0.46662 -0.3627041,-0.29138 -0.8223594,-0.46662 -1.3229167,-0.46662 -0.181692,0 -0.3571849,0.0254 -0.5255498,0.0687 -7.938e-4,-0.023 -0.00362,-0.0455 -0.00362,-0.0687 0,-1.02444 0.8276405,-1.85208 1.8520834,-1.85208 z" /><path fill="#D446A5" d="m 2.9104161,291.9729 c 0.4242859,0 0.8135594,0.14328 1.1255138,0.38241 -0.2746058,0.28408 -0.47203,0.64378 -0.5539714,1.04539 -0.550926,-0.24442 -0.9585299,-0.74893 -1.0691866,-1.35908 0.1584987,-0.044 0.3249375,-0.0687 0.4976442,-0.0687 z" /><path fill="#27b73f" d="m 5.5562495,291.9729 c 0.1727095,0 0.3391456,0.0246 0.4976443,0.0687 -0.1106567,0.61015 -0.5182606,1.11466 -1.0691866,1.35908 -0.081942,-0.40161 -0.279363,-0.76131 -0.5539714,-1.04539 0.311957,-0.23913 0.7012279,-0.38241 1.1255137,-0.38241 z" /><path fill="#5856d6" d="m 2.1590418,292.13258 c 0.143465,0.70226 0.6367727,1.27725 1.2882933,1.53892 -0.00365,0.0508 -0.00775,0.10176 -0.00775,0.15349 0,0.5707 0.2280365,1.08812 0.5963471,1.46915 -0.3119544,0.2391 -0.7012279,0.38293 -1.1255138,0.38293 -1.0244428,0 -1.8520833,-0.82764 -1.8520833,-1.85208 0,-0.7565 0.4521014,-1.40457 1.100709,-1.69241 z" /><path fill="#27b73f" d="m 6.3076239,292.13258 c 0.6486075,0.28784 1.100709,0.93591 1.100709,1.69241 0,1.02444 -0.8276378,1.85208 -1.8520834,1.85208 -0.4242858,0 -0.8135567,-0.14383 -1.1255137,-0.38293 0.3683106,-0.38103 0.5963471,-0.89845 0.5963471,-1.46915 0,-0.0517 -0.0041,-0.10269 -0.00775,-0.15349 0.6515206,-0.26167 1.1448309,-0.83666 1.2882933,-1.53892 z" /><path fill="#ff9500" d="m 3.707783,293.75572 c 0.168365,0.0432 0.3438578,0.0693 0.5255498,0.0693 0.1816921,0 0.3571849,-0.0259 0.5255499,-0.0693 7.937e-4,0.0233 0.00362,0.0459 0.00362,0.0693 0,0.50535 -0.2020729,0.96218 -0.5291667,1.29603 -0.3270938,-0.33385 -0.5291667,-0.79068 -0.5291667,-1.29603 0,-0.0233 0.00275,-0.0461 0.00362,-0.0693 z" /></g></svg>
