<svg xmlns="http://www.w3.org/2000/svg" xmlns:xlink="http://www.w3.org/1999/xlink" viewBox="0 0 46 70" version="1.1" x="0px" y="0px"><g stroke="none" stroke-width="1" fill-rule="evenodd" stroke-linecap="round" stroke-linejoin="round"><g transform="translate(-1089.000000, -1808.000000)" stroke="#007aff" stroke-width="1.8"><g transform="translate(1090.000000, 1809.000000)"><path fill="#fff" d="M37,26 L26,26 C24.323,26 23,24.677 23,23 L23,22.098 C23,20.421 24.323,19 26,19 L37,19 C38.677,19 40,20.421 40,22.098 L40,23 C40,24.677 38.677,26 37,26 L37,26 Z"/><path fill="#fff" d="M37.7275,33 L25.1745,33 C23.4015,33 22.0005,31.773 22.0005,30 L22.0005,29.447 C22.0005,27.674 23.4015,26 25.1745,26 L37.7275,26 C39.5005,26 41.0005,27.227 41.0005,29 L41.0005,29.553 C41.0005,31.326 39.5005,33 37.7275,33 L37.7275,33 Z"/><path fill="#fff" d="M35.9019,40 L24.9999,40 C23.3229,40 21.9999,38.677 21.9999,37 L21.9999,36.098 C21.9999,34.421 23.3229,33 24.9999,33 L35.9019,33 C37.5789,33 38.9999,34.421 38.9999,36.098 L38.9999,37 C38.9999,38.677 37.5789,40 35.9019,40 L35.9019,40 Z"/><path fill="#fff" d="M7.011,20 C4.87,24.418 6,28 6,28"/><path fill="#fff" d="M39.0078,45.5549 L25.9998,40.0829 L25.9998,40.0809 C25.9998,40.0809 25.9188,40.0519 25.8088,39.9999 L24.9998,39.9999 C23.3228,39.9999 21.9998,38.6769 21.9998,36.9999 L21.9998,36.0979 C21.9998,34.4209 23.3228,32.9999 24.9998,32.9999 L25.1748,32.9999 C23.4018,32.9999 21.9998,31.7729 21.9998,29.9999 L21.9998,29.4469 C21.9998,27.6739 23.4018,25.9999 25.1748,25.9999 L25.9998,25.9999 C24.3228,25.9999 22.9998,24.6769 22.9998,22.9999 L22.9998,22.0979 C22.9998,20.4209 24.3228,18.9999 25.9998,18.9999 L17.9998,18.9999 L19.9998,16.0809 C21.4378,14.2059 24.8038,7.8649 25.1248,4.1449 C25.3888,1.0769 20.2628,-2.7511 18.8448,2.8939 C17.8518,6.8479 13.5278,12.5939 10.7068,14.9669 C8.9258,16.4659 7.7678,18.4389 7.0108,19.9999 L2.9998,19.9999 C1.3488,19.9999 -0.0002,20.9149 -0.0002,22.5659 L-0.0002,40.5769 C-0.0002,42.2269 1.3378,43.9889 2.9888,43.9999 L6.9998,43.9999 C11.3328,47.2499 11.0508,47.0809 20.9998,47.0809 L37.9998,52.5549 C40.1878,53.3619 41.9058,53.5499 43.0078,51.5549 C44.0628,49.2999 43.6248,47.9869 39.0078,45.5549 L39.0078,45.5549 Z"/></g></g></g></svg>
