<svg xmlns="http://www.w3.org/2000/svg" viewBox="0 0 26 26">
    <path fill="#007aff" d="M 3 3 C 1.344 3 0 4.344 0 6 C 0 7.536337 1.1667444 8.7935492 2.65625 8.96875 L 0.40625 17.28125 C -0.50875 19.73225 1.06125 22 4.03125 22 L 13 22 L 20.1875 22 L 21.96875 22 C 24.93875 22 26.50875 19.73225 25.59375 17.28125 L 23.34375 8.96875 C 24.833256 8.7935492 26 7.536337 26 6 C 26 4.344 24.656 3 23 3 L 3 3 z M 5.21875 5.59375 L 13 5.59375 L 13 20.40625 L 4.03125 20.40625 C 3.12225 20.40625 2.39725 20.0905 2.03125 19.5625 C 1.71425 19.1055 1.66125 18.50175 1.90625 17.84375 L 1.9375 17.78125 L 1.96875 17.6875 L 5.21875 5.59375 z M 17.28125 5.59375 L 20.78125 5.59375 L 24.03125 17.6875 L 24.0625 17.78125 L 24.09375 17.84375 C 24.33875 18.50075 24.28575 19.1055 23.96875 19.5625 C 23.60275 20.0905 22.87775 20.40625 21.96875 20.40625 L 19.90625 20.40625 L 17.28125 5.59375 z"></path>
</svg>
