<svg xmlns="http://www.w3.org/2000/svg" xmlns:xlink="http://www.w3.org/1999/xlink" version="1.1" x="0px" y="0px" viewBox="0 0 30 37.5" xml:space="preserve"><g transform="translate(-210 -680)"><g xmlns="http://www.w3.org/2000/svg" xmlns:xlink="http://www.w3.org/1999/xlink"><path fill="#fff" d="M225,682c-7.18,0-13,5.82-13,13s5.82,13,13,13c7.18,0,13-5.82,13-13S232.18,682,225,682z M225,706    c-6.065,0-11-4.934-11-11c0-6.065,4.935-11,11-11s11,4.935,11,11C236,701.066,231.065,706,225,706z"/><path fill="#fff" d="M225,685c0,3,0,17,0,20c5.514,0,10-4.486,10-10S230.514,685,225,685z"/></g></g></svg>
