<svg xmlns="http://www.w3.org/2000/svg" xmlns:xlink="http://www.w3.org/1999/xlink" xmlns:sketch="http://www.bohemiancoding.com/sketch/ns" viewBox="0 0 41 75" version="1.1" x="0px" y="0px"><path fill="#333333" d="M12,20 L12,53.172 L3.414,44.586 C2.633,43.805 1.367,43.805 0.586,44.586 C-0.195,45.366 -0.195,46.634 0.586,47.414 L12.585,59.413 C12.678,59.506 12.781,59.59 12.891,59.663 C12.94,59.696 12.993,59.718 13.044,59.746 C13.107,59.781 13.168,59.819 13.235,59.847 C13.301,59.874 13.369,59.89 13.437,59.91 C13.494,59.927 13.549,59.949 13.608,59.96 C13.867,60.012 14.133,60.012 14.392,59.96 C14.451,59.949 14.506,59.927 14.563,59.91 C14.631,59.89 14.699,59.874 14.765,59.847 C14.832,59.819 14.893,59.781 14.956,59.746 C15.007,59.718 15.06,59.696 15.109,59.663 C15.219,59.59 15.322,59.506 15.415,59.413 L27.414,47.414 C27.805,47.024 28,46.512 28,46 C28,45.488 27.805,44.976 27.414,44.586 C26.633,43.805 25.367,43.805 24.586,44.586 L16,53.172 L16,20 C16,18.896 15.104,18 14,18 C12.896,18 12,18.896 12,20" sketch:type="MSShapeGroup"/><path fill="#333333" d="M26,32 L26,34 C26,34.552 26.448,35 27,35 C27.552,35 28,34.552 28,34 L28,32 C28,31.448 27.552,31 27,31 C26.448,31 26,31.448 26,32" sketch:type="MSShapeGroup"/><path fill="#333333" d="M26,20 L26,22 C26,22.552 26.448,23 27,23 C27.552,23 28,22.552 28,22 L28,20 C28,19.448 27.552,19 27,19 C26.448,19 26,19.448 26,20" sketch:type="MSShapeGroup"/><path fill="#333333" d="M26,38 L26,40 C26,40.552 26.448,41 27,41 C27.552,41 28,40.552 28,40 L28,38 C28,37.448 27.552,37 27,37 C26.448,37 26,37.448 26,38" sketch:type="MSShapeGroup"/><path fill="#333333" d="M26,26 L26,28 C26,28.552 26.448,29 27,29 C27.552,29 28,28.552 28,28 L28,26 C28,25.448 27.552,25 27,25 C26.448,25 26,25.448 26,26" sketch:type="MSShapeGroup"/><path fill="#333333" d="M28,8 C28,7.447 27.552,7 27,7 C26.448,7 26,7.447 26,8 L26,10 C26,10.553 26.448,11 27,11 C27.552,11 28,10.553 28,10 L28,8" sketch:type="MSShapeGroup"/><path fill="#333333" d="M28,14 C28,13.448 27.552,13 27,13 C26.448,13 26,13.448 26,14 L26,16 C26,16.552 26.448,17 27,17 C27.552,17 28,16.552 28,16 L28,14" sketch:type="MSShapeGroup"/><path fill="#333333" d="M25.586,0.586 L13.586,12.586 C12.805,13.367 12.805,14.634 13.586,15.414 C14.367,16.195 15.633,16.195 16.414,15.414 L26.857,4.971 C26.906,4.978 26.949,5 27,5 C27.051,5 27.094,4.978 27.143,4.971 L37.586,15.414 C38.367,16.195 39.633,16.195 40.414,15.414 C40.805,15.024 41,14.512 41,14 C41,13.488 40.805,12.977 40.414,12.586 L28.414,0.586 C27.633,-0.195 26.367,-0.195 25.586,0.586" sketch:type="MSShapeGroup"/></svg>
