<svg xmlns="http://www.w3.org/2000/svg" xmlns:xlink="http://www.w3.org/1999/xlink" version="1.1" x="0px" y="0px" viewBox="0 0 64 80" enable-background="new 0 0 64 64" xml:space="preserve"><g><path fill="#007aff" d="M27.6,42.5l-0.3-24.9l3.5,0l0-0.5c-0.1-1.1-0.8-1.9-1.9-1.9c-0.3,0-0.6,0-0.9,0l-1.1,0c-1.2,0-2,0.8-2,2.1   L25.2,43c0,1.2,0.8,2,1.9,2c0.4,0,0.7,0,1.1,0s0.7,0,1.1,0c1,0,1.8-0.8,1.8-1.9l0-0.5L27.6,42.5z"/><path fill="#007aff" d="M46.4,7.6c0-1.6-0.6-3.1-1.7-4.2c-1.1-1.1-2.8-1.8-4.4-1.8c-5.7,0-11.5,0-17.3,0h-8.7c-3.6,0-6,2.4-6,5.9   v36.4c0,2.5,0,9.9,0,12.4c0,1.7,0.6,3.2,1.7,4.3c1.1,1.1,2.7,1.7,4.3,1.7h0.1c7.5,0,15.5-0.1,25.9,0c1.6,0,3.2-0.6,4.3-1.8   c1.1-1.1,1.7-2.6,1.7-4.2c0-0.9,0-7.4,0-14.7L44.1,42l0,2c0,0,0,0,0,0v6.2H10.7V7.5c0-2.3,1.4-3.6,3.7-3.6h8.7c5.8,0,11.6,0,17.3,0   c1.1,0,2,0.4,2.8,1.1c0.5,0.5,1,1.3,1,2.5c0,0.5,0,1.9,0,2.3l0,0.9V11c0,0.3,0,0.6,0,0.9h0l0,2.6l2.3-0.3l0-1h0v-1.9   c0-0.4,0-0.9,0-1.3C46.4,9.2,46.4,8.4,46.4,7.6z M44.1,52.5c0,1.3,0,2.6,0,3.9c0,1-0.4,1.9-1,2.6c-0.7,0.7-1.7,1.1-2.7,1.1   c-10.4,0-18.4,0-25.9,0c-1.1,0-2.1-0.4-2.8-1.1c-0.7-0.7-1-1.6-1-2.7c0-1.3,0-2.6,0-3.8H44.1z"/><path fill="#007aff" d="M27.4,54.8c-0.9,0-1.6,0.7-1.6,1.6c0,0.9,0.7,1.6,1.6,1.6h0c0.9,0,1.6-0.7,1.6-1.6   C29,55.5,28.3,54.8,27.4,54.8z"/><path fill="#007aff" d="M31.7,8.2h-8.6c-0.7,0-1.2,0.5-1.2,1.2s0.5,1.2,1.2,1.2h8.6c0.7,0,1.2-0.5,1.2-1.2S32.4,8.2,31.7,8.2z"/><path fill="#007aff" d="M49.7,16.5l-15.8,2.2c-1.5,0.2-2.9,0.4-4.4,0.6l-0.4,0.1l0,2.5l17.6-2.4c1.1-0.2,2.2-0.3,3.3-0.5   c0.5-0.1,0.9-0.2,1,0.8l0.4,3.2l-22,3l0,2.6l22.4-3l1.3,9.1c0.1,0.7-0.1,1-0.8,1.1l-6.9,1l0.1,0l-16.2,2.2l0,2.5l20.8-2.9l0,0   l2.5-0.4c2.1-0.3,3.2-1.7,2.9-3.8l-2.1-14.9C53.2,17.4,51.7,16.2,49.7,16.5z"/></g></svg>
