<svg xmlns="http://www.w3.org/2000/svg" xmlns:xlink="http://www.w3.org/1999/xlink" version="1.1" x="0px" y="0px" viewBox="0 0 100 125" enable-background="new 0 0 100 100" xml:space="preserve"><g><path fill="#007aff" d="M67.931,79.992c-0.736,0-1.504-0.299-2.347-0.912L51.699,68.993c-0.846-0.613-2.552-0.613-3.398,0   L34.416,79.081c-1.734,1.262-3.412,1.14-4.272-0.051c-0.576-0.791-0.646-1.869-0.209-3.207l5.304-16.323   c0.338-1.045-0.16-2.585-1.051-3.231L20.303,46.182c-1.915-1.39-1.826-2.747-1.603-3.433c0.221-0.686,0.949-1.836,3.313-1.836   h17.165c1.1,0,2.406-0.951,2.745-1.995l5.308-16.325c0.729-2.249,2.047-2.585,2.768-2.585c0.721,0,2.04,0.336,2.77,2.585   l5.303,16.324c0.341,1.045,1.65,1.996,2.749,1.996h17.163c2.364,0,3.092,1.15,3.313,1.836c0.223,0.686,0.313,2.043-1.603,3.433   L65.812,56.271c-0.888,0.645-1.389,2.185-1.05,3.23l5.303,16.323c0.437,1.338,0.366,2.417-0.207,3.206   C69.414,79.641,68.712,79.992,67.931,79.992z M24.159,44.522L36.31,53.35c2.143,1.558,3.179,4.749,2.359,7.267l-4.641,14.286   l12.153-8.83c2.077-1.511,5.56-1.511,7.637,0L65.972,74.9l-4.641-14.283c-0.82-2.519,0.218-5.71,2.362-7.267l12.148-8.828H60.823   c-2.651,0-5.365-1.973-6.182-4.491L50,25.747l-4.643,14.286c-0.815,2.517-3.529,4.489-6.177,4.489H24.159z"/></g></svg>
