<svg xmlns="http://www.w3.org/2000/svg" xmlns:xlink="http://www.w3.org/1999/xlink" version="1.1" x="0px" y="0px" viewBox="0 0 100 125" enable-background="new 0 0 100 100" xml:space="preserve"><g><polygon fill="#007aff" points="32.111,6.24 37.405,16.969 49.245,18.689 40.678,27.041 42.701,38.833 32.111,33.264 21.521,38.833 23.544,27.041    14.976,18.689 26.816,16.969  "/><polygon fill="#007aff" points="33.351,41.639 37.982,49.781 47.316,50.584 41.002,57.504 43.123,66.63 34.59,62.764 26.567,67.601 27.608,58.289    20.528,52.154 29.704,50.267  "/><polygon fill="#007aff" points="51.607,67.447 55.256,73.158 62.028,73.391 57.724,78.625 59.596,85.14 53.287,82.662 47.67,86.456 48.076,79.691    42.732,75.521 49.293,73.817  "/><polygon fill="#007aff" points="71.423,81.543 73.914,84.924 78.112,84.787 75.667,88.201 77.094,92.15 73.091,90.881 69.775,93.46 69.746,89.26    66.271,86.903 70.256,85.578  "/><polygon fill="#007aff" points="85.372,88.867 86.634,90.004 88.285,89.61 87.594,91.159 88.479,92.607 86.791,92.429 85.69,93.72 85.336,92.058    83.77,91.408 85.238,90.561  "/></g></svg>
