<svg xmlns="http://www.w3.org/2000/svg" xmlns:xlink="http://www.w3.org/1999/xlink" version="1.1" x="0px" y="0px" viewBox="0 0 100 125" enable-background="new 0 0 100 100" xml:space="preserve"><g><g><path  fill="#333333" d="M35.652,96.432c-0.101,0-0.203-0.03-0.292-0.094c-0.216-0.155-0.272-0.453-0.129-0.677    c0.8-1.245,14.237-13.934,34.646-33.148c8.922-8.401,18.048-16.994,23.329-22.06c-6.078,4.775-16.58,13.428-26.842,21.882    c-23.824,19.63-39.602,32.537-41.77,33.079c-0.167,0.041-0.346-0.007-0.47-0.127c-0.124-0.121-0.177-0.298-0.139-0.467    c1.447-6.512,31.989-31.595,52.199-48.193c3.974-3.264,7.684-6.311,10.51-8.681c-7.521,5.625-20.811,16.27-32.95,25.994    c-27.779,22.25-37.25,29.624-38.527,29.443c-0.14-0.02-0.265-0.097-0.344-0.213s-0.106-0.261-0.074-0.397    c0.173-0.731,8.564-8.259,37.334-33.766C68.74,44.283,87.092,28.013,94.858,20.753c-0.708,0.528-1.421,1.066-2.069,1.556    c-1.213,0.916-2.398,1.81-3.366,2.513c-5.838,4.244-21.36,17.316-37.794,31.156C31.28,73.114,12.06,89.302,8.995,90.652    c-0.213,0.093-0.466,0.026-0.605-0.163c-0.139-0.189-0.126-0.45,0.029-0.626c9.19-10.397,38.095-35.025,59.201-53.007    c9.992-8.514,19-16.189,23.479-20.274c-8.873,6.281-32.542,24.476-50.688,38.425C8.842,79.275,8.748,79.229,8.258,79.064    c-0.151-0.053-0.268-0.175-0.314-0.329c-0.046-0.153-0.016-0.319,0.082-0.447c4.334-5.68,9.63-10.615,14.752-15.388l0.2-0.187    c6.471-6.028,22.135-19.542,35.725-30.644c-3.744,2.711-7.688,5.575-11.601,8.417C23.569,57.575,8.019,68.808,6.345,69.226    c-0.209,0.051-0.432-0.037-0.546-0.223c-0.114-0.185-0.096-0.422,0.045-0.588c2.515-2.94,5.657-5.588,8.695-8.149    c1.43-1.205,2.909-2.45,4.276-3.691c6.275-5.697,25.173-21.131,40.367-32.849C37.745,38.542,5.72,61.338,5.412,61.609    c-0.179,0.158-0.449,0.169-0.638,0.023c-0.19-0.146-0.253-0.402-0.146-0.616c0.796-1.603,21.187-17.596,45.743-36.759    c5.637-4.399,10.826-8.448,14.316-11.202C55.55,18.741,35.058,32.902,5.235,54.161c-1.097,0.781-1.767,1.259-1.916,1.362    c-0.173,0.12-0.405,0.12-0.577-0.004c-0.172-0.123-0.248-0.342-0.188-0.546c0.12-0.415,2.455-2.482,23.607-20.491    c10.83-9.22,23.81-20.271,28.7-24.668c-0.257,0.146-0.511,0.289-0.764,0.423C50.549,12.125,9.794,39.863,2.285,45.274    c-0.21,0.151-0.499,0.117-0.669-0.077c-0.169-0.194-0.163-0.486,0.015-0.673c1.374-1.444,11.045-9.508,21.286-18.047    c8.443-7.04,17.104-14.261,21.428-18.033c-0.238,0.151-0.476,0.304-0.712,0.456c-0.399,0.257-0.79,0.508-1.166,0.738    c-2.399,1.466-11.623,8.207-20.542,14.727C13.56,30.479,5.658,36.255,3.877,37.318c-0.211,0.127-0.481,0.08-0.64-0.108    c-0.158-0.188-0.155-0.463,0.005-0.648c0.975-1.127,7.826-6.967,15.758-13.73c7.801-6.651,16.461-14.034,19.912-17.279    c-0.927,0.499-1.909,1.192-2.718,1.764C35.762,7.624,35.37,7.9,35.048,8.105C34.774,8.279,7.237,25.985,2.658,30.894    c-0.185,0.197-0.491,0.213-0.694,0.036c-0.203-0.178-0.229-0.484-0.059-0.693c2.822-3.46,15.125-15.025,22.475-21.936    c0.474-0.445,0.929-0.874,1.363-1.282C19.42,11.052,10.127,17.501,5.145,20.959c-1.682,1.167-2.929,2.032-3.494,2.412    c-0.202,0.136-0.473,0.107-0.642-0.071c-0.168-0.178-0.183-0.45-0.036-0.645C2.741,20.314,11.068,11.166,15.65,6.164L3.318,14.688    c-0.227,0.157-0.539,0.1-0.695-0.127c-0.157-0.227-0.1-0.539,0.127-0.695L18.754,2.803c0.209-0.146,0.494-0.109,0.662,0.083    c0.167,0.192,0.163,0.479-0.01,0.667C19.281,3.688,9.092,14.744,4.122,20.451c0.147-0.102,0.298-0.207,0.453-0.314    C10.812,15.809,23.79,6.803,29.311,3.668c0.22-0.124,0.498-0.066,0.648,0.137c0.15,0.203,0.126,0.485-0.056,0.66    c-1.082,1.033-2.789,2.638-4.839,4.565C20.245,13.561,13.29,20.099,8.3,25.016c9.695-7.135,26-17.62,26.211-17.754    C34.822,7.064,35.2,6.796,35.619,6.5c1.583-1.119,3.553-2.511,5.098-2.602c0.196-0.011,0.379,0.092,0.471,0.264    s0.075,0.383-0.044,0.538C39.902,6.328,29.607,15.105,19.65,23.593c-3.397,2.896-6.71,5.721-9.414,8.051    c3.17-2.291,7.081-5.149,11.099-8.087c8.936-6.531,18.176-13.285,20.61-14.772c0.37-0.226,0.753-0.473,1.146-0.726    c1.293-0.833,2.759-1.776,4.163-2.22c0.215-0.069,0.449,0.016,0.571,0.205c0.122,0.189,0.103,0.437-0.047,0.604    c-1.401,1.569-13.002,11.242-24.221,20.596c-5.18,4.319-10.214,8.517-14.093,11.789c14.391-9.941,41.176-28.09,44.166-29.679    c0.247-0.132,0.497-0.273,0.75-0.417c0.873-0.494,1.775-1.005,2.769-1.235c0.193-0.043,0.393,0.029,0.512,0.187    s0.134,0.371,0.038,0.543C57.193,9.34,45.141,19.638,26.81,35.245c-5.939,5.056-11.985,10.204-16.44,14.034    C36.118,30.977,65.086,10.755,69.306,9.361c0.218-0.073,0.462,0.015,0.584,0.214c0.121,0.198,0.09,0.453-0.075,0.617    c-0.772,0.763-8.347,6.673-18.829,14.854C38.952,34.438,22.739,47.09,13.271,54.772c18.51-13.15,60.947-43.088,64.272-44.383    c0.241-0.094,0.515,0.012,0.63,0.244c0.114,0.231,0.034,0.513-0.187,0.648c-10.67,6.544-49.017,37.425-58.5,46.033    c-1.381,1.253-2.866,2.506-4.303,3.716c-2.092,1.764-4.233,3.567-6.171,5.472c6.727-4.477,23.5-16.657,37.501-26.824    c22.85-16.592,32.973-23.882,34.018-24.057c0.237-0.04,0.474,0.099,0.555,0.329c0.08,0.23-0.018,0.484-0.231,0.602    c-8.642,4.768-46.201,36.651-57.195,46.894l-0.2,0.186c-4.27,3.979-8.662,8.071-12.494,12.6    c5.121-3.785,16.719-12.701,28.837-22.018c30.948-23.79,52.982-40.647,54.633-40.861c0.184-0.024,0.367,0.056,0.474,0.208    c0.107,0.152,0.12,0.351,0.035,0.517c-0.713,1.38-10.116,9.43-26.676,23.539c-19.068,16.246-44.507,37.92-55.961,49.568    c7.278-5.53,23.188-18.929,38.677-31.973c16.448-13.852,31.983-26.935,37.85-31.2c0.964-0.701,2.145-1.591,3.352-2.503    c3.675-2.772,5.958-4.469,6.689-4.655c0.209-0.053,0.418,0.029,0.536,0.201c0.118,0.173,0.117,0.401-0.004,0.572    c-1.524,2.152-24.445,22.474-46.611,42.126C38.85,72.12,24.533,84.813,18.576,90.328c6.459-4.677,21.202-16.484,34.541-27.169    C71.931,48.09,89.701,33.857,92.229,33.024c0.2-0.065,0.417,0,0.547,0.163c0.131,0.163,0.146,0.39,0.038,0.569    c-0.572,0.953-5.879,5.333-15.996,13.643C58.971,62.058,29.76,86.048,25.453,93.849c5.076-3.282,24.431-19.229,40.276-32.285    c18.976-15.635,30.615-25.172,32.239-25.774c0.204-0.074,0.438-0.01,0.571,0.165c0.133,0.174,0.137,0.416,0.01,0.594    c-0.695,0.973-11.037,10.733-27.986,26.692c-8.288,7.804-17.155,16.152-23.827,22.505c16.381-13.621,44.684-36.437,47.007-37.061    c0.19-0.053,0.395,0.015,0.52,0.169c0.124,0.154,0.146,0.367,0.055,0.543c-0.398,0.77-7.549,7.334-22.635,21.089    c-7.294,6.651-15.214,13.873-20.274,18.61c3.23-2.49,7.411-5.755,11.521-8.965c10.304-8.045,21.98-17.163,26.279-20.123    c0.2-0.136,0.47-0.11,0.642,0.063c0.17,0.175,0.189,0.446,0.046,0.644c-1.839,2.521-12.302,11.857-21.867,20.283    c5.987-4.887,12.281-9.493,19.361-12.561c0.178-0.075,0.384-0.044,0.529,0.084s0.204,0.328,0.15,0.514    c-0.521,1.798-5.091,5.723-12.504,11.977c-4.687,3.953-9.85,8.309-13.051,11.629c1.707-1.286,3.947-3.033,6.148-4.749    c7.766-6.053,17.43-13.586,21.048-14.993c0.141-0.054,0.299-0.043,0.431,0.032c0.131,0.075,0.221,0.206,0.245,0.355    c0.198,1.247-2.846,3.95-10.367,10.283c-3.106,2.616-6.279,5.288-8.616,7.489c0.836-0.609,1.755-1.287,2.69-1.977    c7.485-5.517,13.865-10.113,16.133-10.472c0.155-0.022,0.31,0.024,0.423,0.132s0.169,0.262,0.152,0.416    c-0.093,0.852-2.318,3.04-8.958,9.182c-1.811,1.675-3.66,3.386-4.946,4.644c3.706-1.948,11.737-6.541,17.083-9.66    c0.22-0.128,0.501-0.071,0.654,0.135c0.151,0.205,0.124,0.491-0.063,0.664l-8.83,8.147l5.893-2.896    c0.249-0.118,0.548-0.02,0.67,0.229c0.121,0.248,0.02,0.548-0.229,0.67l-8.982,4.413c-0.225,0.107-0.492,0.039-0.633-0.167    c-0.141-0.204-0.109-0.481,0.073-0.649l8.016-7.396c-7.363,4.257-14.807,8.427-15.704,8.428c-0.012,0-0.021-0.001-0.031-0.002    c-0.172-0.024-0.318-0.137-0.388-0.296c-0.068-0.159-0.051-0.344,0.049-0.485c0.639-0.914,3.443-3.508,6.689-6.512    c2.709-2.505,6.183-5.718,7.782-7.46c-3.244,1.623-9.729,6.402-14.259,9.742c-3.723,2.743-5.861,4.308-6.529,4.556    c-0.203,0.078-0.438,0.01-0.572-0.167c-0.134-0.176-0.136-0.418-0.006-0.597c1.782-2.444,6.873-6.73,11.796-10.875    c3.485-2.935,7.642-6.435,9.293-8.288c-4.287,2.391-12.903,9.106-19.391,14.164c-6.29,4.903-8.73,6.77-9.414,6.923    c-0.206,0.045-0.409-0.039-0.523-0.208c-0.115-0.171-0.114-0.395,0.002-0.563c2.362-3.436,9.081-9.104,15.578-14.585    c4.648-3.922,9.424-7.95,11.342-10.202c-8.604,4.061-16.095,10.396-23.352,16.535c-3.839,3.246-7.808,6.603-11.873,9.562    c-0.197,0.144-0.469,0.124-0.644-0.046c-0.174-0.171-0.201-0.441-0.062-0.643c0.395-0.573,4.266-3.983,11.646-10.467    c7.775-6.83,17.671-15.521,23.183-20.784c-5.567,4.186-13.971,10.747-21.616,16.718c-10.329,8.064-16.701,13.026-17.515,13.401    c-0.208,0.098-0.457,0.038-0.601-0.143c-0.143-0.181-0.145-0.436-0.003-0.618c1.287-1.659,13.638-12.922,25.583-23.813    c6.845-6.241,14.3-13.039,18.664-17.13c-13.124,9.782-51.121,40.5-53.629,43.626C35.944,96.367,35.799,96.432,35.652,96.432z"/></g></g></svg>
